<?xml version="1.0" encoding="UTF-8"?>
<!DOCTYPE svg PUBLIC "-//W3C//DTD SVG 1.1//EN" "http://www.w3.org/Graphics/SVG/1.1/DTD/svg11.dtd">
<!-- Creator: CorelDRAW 2018 (64-Bit Оценочная версия) -->
<?xml-stylesheet href="SVG4.css" type="text/css"?>
<svg xmlns="http://www.w3.org/2000/svg" xml:space="preserve" width="400.5mm" height="297mm" version="1.1" style="shape-rendering:geometricPrecision; text-rendering:geometricPrecision; image-rendering:optimizeQuality; fill-rule:evenodd; clip-rule:evenodd"
viewBox="0 0 40050 29700"
 xmlns:xlink="http://www.w3.org/1999/xlink">
 <defs>
   <clipPath id="id0" style="clip-rule:nonzero">
    <path d="M4037.52 8240.2l-769.05 3.53 758.47 -2148.42 -1157.11 0 239.89 -670.28 3044.47 0 -236.36 670.28 -1121.83 0 -758.48 2148.42 0 -3.53zm7358.27 -2100.21l-366.89 1034.82 -2222.5 0 -59.98 181.68c-16.46,44.68 -24.69,82.9 -24.69,113.48 0,73.49 47.04,110.53 141.11,110.53l2024.95 0 -232.84 663.23 -2183.69 0c-413.93,0 -620.89,-129.36 -620.89,-388.06 0,-72.91 25.87,-184.62 77.61,-335.14l645.58 -1869.72c51.74,-145.82 177.57,-218.73 377.48,-218.73l2070.8 0c296.34,0 444.5,122.3 444.5,366.31 0,91.13 -23.52,205.2 -70.55,341.6zm-821.98 137c4.71,-13.52 7.06,-28.81 7.06,-45.27 0,-91.14 -57.62,-136.41 -172.86,-136.41l-987.78 0c-84.67,0 -144.64,5.88 -179.92,17.64 -49.38,18.22 -82.31,53.5 -98.77,104.65l-95.25 293.99 1449.91 0 77.61 -234.6zm6123.55 -844.91l-232.83 663.23 -1665.12 0c-87.02,0 -154.04,17.64 -201.08,52.33 -25.87,18.81 -54.09,53.5 -84.67,105.24 -4.7,7.06 -7.05,24.11 -7.05,52.33 0,27.63 -1.18,41.75 -3.53,41.75 -4.7,11.76 -7.06,24.69 -7.06,38.8 0,69.97 52.92,104.66 158.75,104.66l1280.59 0c143.46,0 260.47,33.51 351.01,100.54 90.55,67.62 135.82,163.45 135.82,288.1 0,66.44 -14.11,138.17 -42.33,215.79 -70.56,191.08 -174.04,469.19 -310.45,834.32 -37.63,105.83 -82.31,181.68 -134.05,226.36 -63.5,58.8 -152.87,88.2 -268.11,88.2l-2377.73 0 236.36 -663.23 1661.59 0c150.52,0 246.94,-52.33 289.28,-157.57 35.27,-91.14 57.62,-134.06 67.02,-129.35 2.36,-9.41 3.53,-19.41 3.53,-28.81 0,-74.09 -59.97,-111.13 -179.91,-111.13l-1280.59 0c-141.11,0 -255.17,-32.92 -342.19,-98.19 -94.08,-70.55 -141.11,-168.74 -141.11,-295.16 0,-65.85 12.93,-135.82 38.8,-211.07 178.74,-517.41 270.46,-785.52 275.17,-804.34 51.74,-208.73 185.79,-312.8 402.16,-312.8l2377.73 0zm3368.34 2808.12l-769.05 3.53 758.47 -2148.42 -1157.11 0 239.89 -670.28 3044.47 0 -236.36 670.28 -1121.83 0 -758.48 2148.42 0 -3.53zm5372.13 -2815.17l-994.84 2818.7 -769.05 0 994.83 -2818.7 769.06 0zm5379.19 751.42l-733.78 2067.28 -758.48 0 670.28 -1929.7c9.41,-23.52 14.11,-47.04 14.11,-70.56 0,-98.77 -42.33,-148.16 -127,-148.16l-1019.52 0c-138.76,0 -232.84,70.55 -282.23,211.66l-670.28 1936.76 -769.05 0 980.72 -2811.65 2353.03 0c282.22,0 423.33,121.13 423.33,363.37 0,101.13 -27.04,228.13 -81.13,381zm5407.4 -744.37l-236.36 663.23 -1732.14 0c-148.17,0 -243.42,51.15 -285.75,152.87 -42.33,102.3 -119.94,312.79 -232.83,632.06 -127,358.66 -190.5,555.04 -190.5,587.37 0,75.26 58.79,112.89 176.39,112.89l804.33 0c150.52,0 245.77,-52.91 285.75,-158.75 9.41,-11.76 32.93,-65.85 70.56,-162.28l-874.89 0 236.36 -663.22 1640.42 0 -472.73 1332.92c-39.98,110.53 -88.19,189.91 -144.64,236.94 -63.5,51.75 -150.51,77.62 -261.05,77.62l-1855.61 0c-134.06,0 -244.6,-29.4 -331.62,-88.2 -101.13,-68.2 -151.69,-168.16 -151.69,-299.86 0,-61.15 14.11,-131.7 42.33,-211.67 174.04,-515.05 395.11,-1147.7 663.23,-1897.94 39.98,-108.19 87.01,-185.8 141.11,-232.84 63.5,-54.09 150.52,-81.14 261.05,-81.14l2448.28 0z"/>
   </clipPath>
 </defs>
 <g id="Слой_x0020_1">
  <metadata id="CorelCorpID_0Corel-Layer"/>
  <g style="clip-path:url(#id0)">
   <image x="2869.83" y="5425.03" width="33354.59" height="2818.7" xlink:href="SVG4_Images\SVG4_ImgID1.png"/>
  </g>
 </g>
</svg>
