<?xml version="1.0" encoding="UTF-8"?>
<!DOCTYPE svg PUBLIC "-//W3C//DTD SVG 1.1//EN" "http://www.w3.org/Graphics/SVG/1.1/DTD/svg11.dtd">
<!-- Creator: CorelDRAW 2018 (64-Bit Оценочная версия) -->
<?xml-stylesheet href="SVG2.2.css" type="text/css"?>
<svg xmlns="http://www.w3.org/2000/svg" xml:space="preserve" width="210mm" height="297mm" version="1.1" style="shape-rendering:geometricPrecision; text-rendering:geometricPrecision; image-rendering:optimizeQuality; fill-rule:evenodd; clip-rule:evenodd"
viewBox="0 0 21000 29700"
 xmlns:xlink="http://www.w3.org/1999/xlink">
 <defs>
    <clipPath id="id0">
     <path d="M-1838.35 85.31l25089.78 -606.74 0 18930.1 -25089.78 606.74 0 -18930.1z"/>
    </clipPath>
 </defs>
 <g id="Слой_x0020_1">
  <metadata id="CorelCorpID_0Corel-Layer"/>
  <g id="_1912149261984">
   <g style="clip-path:url(#id0)">
    <image x="-1838.35" y="-521.43" width="25089.78" height="19536.84" xlink:href="SVG3_Images\SVG3_ImgID1.png"/>
   </g>
  </g>
  <path class="fil0 str0" d="M15111.78 11668.46c-14930.38,-12991.38 9103.9,-12991.38 -5826.48,0 14930.38,-12991.38 14930.38,7550.74 0,-4979.9 14930.38,12530.64 -9103.9,12530.64 5826.48,0 -14930.38,12530.64 -14930.38,-8011.48 0,4979.9z"/>
  <path class="fil1 str1" d="M8549.23 18426.64c815.85,2114.14 1333.01,3043.65 2069.16,3182.37 738.15,139.11 1696.23,-496.59 3399.03,-1170.43 -1702.8,1379.61 -2621.14,2572.55 -3399.03,3833.86 -698.03,1131.82 -1253.31,2262.63 -2069.16,4148.43 282.16,-1845.88 277.81,-2798.25 -422.15,-3608.71 -777.4,-900.13 -2245.23,-2302.56 -5046.04,-4373.58 2800.81,1437.09 4334.34,2496.1 5046.04,2058.24 768.53,-472.81 704.31,-1791.58 422.15,-4070.18z"/>
 </g>
</svg>
